<?xml version="1.0" encoding="UTF-8"?>
<svg width="752pt" height="752pt" version="1.1" viewBox="0 0 752 752" xmlns="http://www.w3.org/2000/svg">
 <path d="m188.54 415.46h128.26v128.26c-0.003907 2.6172 1.0352 5.1289 2.8867 6.9805 1.8516 1.8516 4.3633 2.8906 6.9805 2.8867h78.93c2.6172 0.003906 5.125-1.0352 6.9766-2.8867 1.8516-1.8516 2.8906-4.3633 2.8867-6.9805v-128.26h128.26c2.6172 0.003906 5.1289-1.0352 6.9805-2.8867 1.8516-1.8516 2.8906-4.3594 2.8867-6.9766v-78.93c0.003906-2.6172-1.0352-5.1289-2.8867-6.9805-1.8516-1.8516-4.3633-2.8906-6.9805-2.8867h-128.26v-128.26c0.003906-2.6172-1.0352-5.1289-2.8867-6.9805-1.8516-1.8477-4.3594-2.8867-6.9766-2.8867h-78.93c-2.6172 0-5.1289 1.0391-6.9805 2.8867-1.8516 1.8516-2.8906 4.3633-2.8867 6.9805v128.26h-128.26c-2.6172-0.003907-5.1289 1.0352-6.9805 2.8867-1.8477 1.8516-2.8867 4.3633-2.8867 6.9805v78.93c0 2.6172 1.0391 5.125 2.8867 6.9766 1.8516 1.8516 4.3633 2.8906 6.9805 2.8867zm9.8672-78.93h128.26c2.6172 0.003906 5.125-1.0352 6.9766-2.8867 1.8516-1.8516 2.8906-4.3594 2.8867-6.9766v-128.26h59.199v128.26c0 2.6172 1.0352 5.125 2.8867 6.9766 1.8516 1.8516 4.3633 2.8906 6.9805 2.8867h128.26v59.199h-128.26c-2.6172 0-5.1289 1.0352-6.9805 2.8867-1.8516 1.8516-2.8867 4.3633-2.8867 6.9805v128.26h-59.199v-128.26c0.003906-2.6172-1.0352-5.1289-2.8867-6.9805-1.8516-1.8516-4.3594-2.8867-6.9766-2.8867h-128.26z" fill="#fff"/>
</svg>
